<svg xmlns="http://www.w3.org/2000/svg" height="48" viewBox="0 96 960 960" width="48"><path d="M448 889 228 760q-13.775-8.426-21.387-22.213Q199 724 199 708V451q0-16 7.613-29.787Q214.225 407.426 228 399l221-131q14-8 31-8t31 8l221 131q13.775 8.426 21.388 22.213Q761 435 761 451v257q0 16-7.875 29.787Q745.25 751.574 731 760L508 889q-14.328 8-30.164 8Q462 897 448 889Zm2-69V596L260 487v219l190 114Zm60 0 191-114V487L510 596v224ZM80 365V236q0-24.75 17.625-42.375T140 176h129v60H140v129H80Zm189 611H140q-24.75 0-42.375-17.625T80 916V787h60v129h129v60Zm422 0v-60h129V787h60v129q0 24.75-17.625 42.375T820 976H691Zm129-611V236H691v-60h129q24.75 0 42.375 17.625T880 236v129h-60ZM480 542l190-110-190-109-190 109 190 110Zm0 25Zm0-25Zm30 54Zm-60 0Z"/></svg>