<?xml version="1.0" ?>
<!DOCTYPE svg  PUBLIC '-//W3C//DTD SVG 1.1//EN'  'http://www.w3.org/Graphics/SVG/1.1/DTD/svg11.dtd'>
<!-- Uploaded to: SVG Repo, www.svgrepo.com, Generator: SVG Repo Mixer Tools -->
<svg fill="#000000" width="800px" height="800px" viewBox="0 0 50 50" enable-background="new 0 0 50 50" version="1.1" xml:space="preserve" xmlns="http://www.w3.org/2000/svg" xmlns:xlink="http://www.w3.org/1999/xlink">
<g id="Layer_23"/>
<g id="Layer_22"/>
<g id="Layer_21"/>
<g id="Layer_20"/>
<g id="Layer_19"/>
<g id="Layer_18"/>
<g id="Layer_17"/>
<g id="Layer_16"/>
<g id="Layer_15"/>
<g id="Layer_14"/>
<g id="Layer_13"/>
<g id="Layer_12"/>
<g id="Layer_11"/>
<g id="Layer_10"/>
<g id="Layer_9"/>
<g id="Layer_8"/>
<g id="Layer_7"/>
<g id="Layer_6"/>
<g id="Layer_5"/>
<g id="Layer_4"/>
<g id="Layer_3"/>
<g id="Layer_2">
<path clip-rule="evenodd" d="M20.938,13.051c-3.328,3.135-6.558,4.822-10.558,6.629   c1.371-3.278,3.046-6.327,5.334-8.922c2.626-2.977,6.099-5.398,10.909-6.943C25.713,7.367,23.739,10.413,20.938,13.051    M33.731,25.551c-3.211-1.657-6.079-4.404-8.8-7.636c4.264-0.46,8.167-0.194,11.551,1.066c3.521,1.311,6.52,3.728,8.827,7.564   C40.833,27.83,37.062,27.27,33.731,25.551z M19.695,50c5.301,0,7.341-7.223,7.341-11.502c0-3.994-1.628-10.186-6.084-11.342   c-0.414-2.846-1.275-5.304-3.405-7.338c1.392-0.492,2.796-0.942,4.212-1.347c3.227,4.01,6.666,7.491,10.691,9.568   c5.961,3.076,10.856,2.298,16.864,0.076c-2.822-5.517-5.808-9.504-11.856-11.755c-3.598-1.34-11.025-2.017-14.866-1.024   C27.627,10.66,29.201,6.716,30.067,0C23.398,1.657,18.321,3.577,13.62,8.907c-3.202,3.631-5.271,7.963-6.936,12.553   c-2.022,1.035-4.022,2.158-5.998,3.365l1.458,2.389c2.066-1.262,4.635-2.821,6.861-3.732c-0.535,1.155-0.865,2.386-1.066,3.64   c-4.463,1.148-6.093,7.349-6.093,11.344c0,4.28,2.039,11.502,7.341,11.502c1.403,0,2.695-0.583,3.792-1.605   c-1.989-2.786-2.825-6.506-2.825-9.865c0-3.375,0.843-7.112,2.852-9.904c-0.65-0.611-1.394-1.093-2.244-1.376   c0.521-2.796,1.635-4.484,3.924-6.159c2.22,1.689,3.02,3.521,3.448,6.186c-4.238,1.384-5.78,7.322-5.78,11.253   C12.355,42.776,14.395,50,19.695,50z" fill-rule="evenodd"/>
</g>
</svg>